ply
format ascii 1.0
element vertex 756
property float32 x
property float32 y
property float32 z
element face 1442
property list uint8 int32 vertex_indices
end_header
16.658258 6.169905 3.677782
16.622348 6.282029 3.718885
16.623481 6.279935 3.733139
16.626041 6.280342 3.759942
16.628543 6.282926 3.788386
16.614468 6.319124 3.720248
16.616080 6.308527 3.729700
16.617401 6.307206 3.752690
16.619681 6.307413 3.782631
16.624389 6.305874 3.815548
16.627722 6.311809 3.848273
16.612116 6.352361 3.719406
16.612161 6.340837 3.727741
16.612846 6.337269 3.748771
16.614241 6.337009 3.777807
16.616699 6.336866 3.810150
16.620236 6.337219 3.843159
16.626570 6.336019 3.875480
16.633837 6.343808 3.903985
16.614129 6.383184 3.717444
16.612575 6.372209 3.725921
16.612563 6.367727 3.745552
16.613729 6.368034 3.773247
16.615288 6.369106 3.805849
16.617415 6.367431 3.838715
16.622195 6.365546 3.869802
16.628609 6.362175 3.894384
16.641703 6.370208 3.917046
16.620282 6.411256 3.714264
16.617010 6.401283 3.722993
16.616232 6.396679 3.741875
16.616366 6.393507 3.765024
16.620829 6.405845 3.797950
16.620369 6.398220 3.833824
16.623916 6.395927 3.865215
16.633866 6.392926 3.896336
16.625754 6.429436 3.718671
16.621875 6.420172 3.735579
16.625384 6.425749 3.763689
16.627611 6.425201 3.830342
16.629497 6.423205 3.857685
16.636273 6.422690 3.884745
16.631446 6.444328 3.735790
16.667479 6.122477 3.647241
16.668005 6.128743 3.652124
16.668160 6.147663 3.666933
16.661738 6.165613 3.677159
16.656338 6.184574 3.688222
16.647560 6.208796 3.697873
16.630463 6.254718 3.710892
16.631204 6.254976 3.718491
16.633994 6.255313 3.739913
16.639711 6.256744 3.775868
16.635344 6.270936 3.796109
16.632548 6.281863 3.808903
16.634578 6.288661 3.831885
16.636226 6.296161 3.855519
16.632553 6.311695 3.870199
16.636563 6.320007 3.892177
16.642012 6.329211 3.912277
16.643250 6.346586 3.921295
16.656801 6.357312 3.932954
16.661359 6.383642 3.933435
16.653777 6.402535 3.920751
16.628534 6.433565 3.709808
16.629665 6.432120 3.810842
16.633782 6.445135 3.710758
16.629317 6.433121 3.792218
16.635949 6.444044 3.825203
16.651524 6.426309 3.907264
16.634283 6.449381 3.719558
16.636206 6.448530 3.779531
16.638377 6.445428 3.847672
16.642806 6.445530 3.874176
16.650746 6.444775 3.894757
16.637963 6.457207 3.725627
16.639422 6.456967 3.755997
16.641857 6.462739 3.734941
16.651683 6.205620 3.705013
16.654387 6.211087 3.727358
16.658133 6.214250 3.751789
16.639648 6.231129 3.707329
16.641998 6.231706 3.721405
16.646404 6.232814 3.746623
16.653656 6.230944 3.772178
16.643286 6.265617 3.813705
16.647667 6.274987 3.850244
16.655809 6.278072 3.880752
16.642578 6.297177 3.876862
16.652814 6.304318 3.906839
16.667486 6.313319 3.929722
16.654495 6.331836 3.927041
16.639765 6.453342 3.707969
16.639890 6.452322 3.803508
16.649624 6.466626 3.708419
16.646780 6.465707 3.717184
16.651147 6.471657 3.776740
16.653911 6.473200 3.803852
16.649698 6.464784 3.830026
16.653429 6.465515 3.861591
16.660141 6.464021 3.887219
16.657144 6.480543 3.740570
16.673161 6.120245 3.647268
16.676932 6.125698 3.653275
16.686233 6.135044 3.664485
16.674980 6.159566 3.681758
16.664318 6.181468 3.695982
16.665848 6.188438 3.713532
16.667569 6.194636 3.737838
16.667595 6.202411 3.759706
16.662640 6.215353 3.771392
16.662185 6.224264 3.787905
16.654191 6.242105 3.798815
16.658549 6.249085 3.829660
16.663952 6.255317 3.861151
16.667619 6.262560 3.885675
16.663967 6.279280 3.901154
16.671832 6.289246 3.920363
16.689701 6.304159 3.940132
16.676892 6.338755 3.941147
16.677006 6.370574 3.942153
16.678645 6.391532 3.940322
16.675802 6.407735 3.933640
16.676120 6.431773 3.923278
16.673212 6.457563 3.907970
16.662339 6.480386 3.710155
16.668002 6.488427 3.718215
16.667014 6.490557 3.789628
16.666070 6.486995 3.817877
16.666784 6.484590 3.847138
16.671054 6.483054 3.875207
16.678214 6.479408 3.895464
16.670781 6.494288 3.727795
16.669997 6.495297 3.760520
16.674616 6.499172 3.737939
16.690188 6.113385 3.647487
16.693534 6.119077 3.653404
16.700206 6.160499 3.754208
16.680431 6.167092 3.700755
16.685127 6.170385 3.726653
16.679735 6.184419 3.756693
16.690376 6.180348 3.785121
16.673032 6.205106 3.783873
16.683384 6.204131 3.815774
16.688160 6.212495 3.848739
16.667577 6.226302 3.810197
16.673529 6.231172 3.840767
16.680992 6.238406 3.877510
16.690511 6.246563 3.908967
16.676317 6.264407 3.905125
16.689463 6.271844 3.926593
16.692652 6.404692 3.939995
16.685613 6.504065 3.720859
16.684793 6.510156 3.774650
16.682033 6.505737 3.803366
16.682135 6.502905 3.832474
16.684670 6.500894 3.861662
16.690574 6.497163 3.887060
16.693713 6.515499 3.742885
16.707177 6.105850 3.645971
16.709814 6.109010 3.649380
16.715553 6.120989 3.661184
16.723746 6.141020 3.739966
16.705424 6.138651 3.676631
16.705426 6.151784 3.727770
16.718831 6.145524 3.765306
16.696620 6.151420 3.690405
16.705288 6.150828 3.707105
16.708916 6.158646 3.786213
16.700014 6.172028 3.798480
16.695646 6.182819 3.809506
16.697980 6.190812 3.833066
16.699813 6.199162 3.856639
16.694220 6.214460 3.871256
16.697908 6.223225 3.893970
16.703429 6.233367 3.915323
16.701633 6.252811 3.927321
16.715844 6.276431 3.944496
16.714127 6.311566 3.951129
16.702014 6.331434 3.949169
16.703352 6.361069 3.947798
16.695811 6.387413 3.943916
16.710182 6.404826 3.941075
16.708779 6.428975 3.934157
16.704053 6.460894 3.922324
16.684165 6.498717 3.709680
16.700266 6.509456 3.708622
16.701994 6.488024 3.906919
16.709728 6.518315 3.717851
16.699825 6.523328 3.788627
16.699138 6.519887 3.816618
16.700534 6.517523 3.845914
16.704196 6.514386 3.873598
16.709467 6.508668 3.893695
16.723705 6.532114 3.731441
16.703551 6.527501 3.762970
16.709821 6.530381 3.746499
16.719432 6.142433 3.718345
16.726216 6.143272 3.783399
16.709720 6.169094 3.817144
16.714391 6.179427 3.853953
16.721861 6.184217 3.884862
16.706622 6.201026 3.878325
16.716859 6.209125 3.908715
16.732167 6.219409 3.932546
16.717184 6.239040 3.931728
16.704278 6.509848 3.704595
16.718803 6.538401 3.774231
16.718298 6.535060 3.799216
16.719377 6.532178 3.827457
16.721768 6.529285 3.856632
16.725877 6.523610 3.882775
16.724258 6.540799 3.751762
16.727723 6.368305 3.948300
16.719154 6.386981 3.944802
16.723906 6.104015 3.648144
16.733347 6.108481 3.653489
16.748388 6.117682 3.663228
16.738785 6.134946 3.718782
16.747771 6.130845 3.736244
16.745016 6.132400 3.764992
16.737887 6.128762 3.674998
16.728245 6.139269 3.705919
16.741017 6.136643 3.793815
16.725936 6.138863 3.690794
16.726054 6.149329 3.805800
16.730692 6.155805 3.836169
16.738582 6.161803 3.874252
16.732363 6.174938 3.892587
16.729420 6.186117 3.903820
16.737345 6.195891 3.922162
16.756251 6.211835 3.943190
16.742690 6.248501 3.948549
16.745510 6.281739 3.955955
16.738297 6.307576 3.955782
16.731036 6.341441 3.952563
16.744753 6.365932 3.948550
16.742917 6.385361 3.944335
16.737598 6.412093 3.939569
16.743469 6.440662 3.934789
16.736337 6.463450 3.928938
16.732099 6.489406 3.918195
16.721592 6.518768 3.707566
16.737078 6.527819 3.713901
16.753019 6.537286 3.723484
16.729522 6.510908 3.902957
16.737760 6.546424 3.780036
16.741107 6.543438 3.805246
16.743186 6.540664 3.834721
16.746146 6.536633 3.863774
16.750989 6.528031 3.888942
16.743781 6.544800 3.738658
16.734453 6.548021 3.763191
16.741810 6.550021 3.751451
16.747538 6.138626 3.818250
16.753774 6.141804 3.849143
16.759805 6.143699 3.874591
16.744525 6.172704 3.907190
16.755849 6.184162 3.929275
16.759534 6.377158 3.945551
16.745320 6.106195 3.652678
16.754979 6.110407 3.656982
16.773620 6.119120 3.663985
16.764405 6.129375 3.718349
16.770988 6.125396 3.740589
16.775385 6.122778 3.763665
16.767208 6.126288 3.793063
16.772996 6.127725 3.827716
16.779041 6.129824 3.861513
16.771192 6.126131 3.673780
16.750362 6.133707 3.702226
16.774042 6.138223 3.887486
16.761221 6.131443 3.686735
16.759479 6.152629 3.896808
16.766889 6.163927 3.920837
16.783387 6.184831 3.943699
16.782603 6.217454 3.955186
16.774298 6.243626 3.957541
16.770564 6.275571 3.959959
16.766794 6.306217 3.959480
16.758333 6.330618 3.956299
16.764142 6.357087 3.950558
16.775900 6.377686 3.945233
16.772968 6.402125 3.940602
16.769341 6.435760 3.935425
16.766240 6.463587 3.930558
16.762101 6.489219 3.922330
16.752654 6.527171 3.708724
16.767587 6.531881 3.713575
16.778182 6.536977 3.723415
16.757307 6.512199 3.908389
16.763593 6.549114 3.777482
16.767479 6.546179 3.808605
16.769478 6.543579 3.839374
16.772534 6.538586 3.868146
16.777994 6.528330 3.891946
16.768507 6.544895 3.737612
16.750446 6.551882 3.761202
16.754654 6.550959 3.747211
16.780289 6.144336 3.908689
16.787992 6.155960 3.928741
16.767566 6.113019 3.658768
16.786762 6.366059 3.948836
16.765530 6.550668 3.754175
16.791179 6.123019 3.665124
16.793995 6.125963 3.718484
16.799722 6.120433 3.742886
16.798657 6.117360 3.771968
16.796590 6.117302 3.803816
16.798814 6.117983 3.835128
16.803213 6.118609 3.860691
16.797151 6.127254 3.888499
16.804052 6.137645 3.917895
16.802992 6.129002 3.671993
16.781146 6.130218 3.699974
16.813724 6.158942 3.941549
16.794872 6.130524 3.684388
16.813613 6.187684 3.954824
16.806963 6.212696 3.959365
16.803570 6.242270 3.962632
16.801065 6.273374 3.963611
16.798673 6.306089 3.962015
16.792293 6.342039 3.955674
16.804759 6.369392 3.949371
16.797865 6.387335 3.943957
16.804486 6.411866 3.939070
16.799422 6.434713 3.934737
16.794892 6.462643 3.929154
16.787034 6.485239 3.923281
16.784784 6.529433 3.712750
16.800228 6.531121 3.721332
16.795895 6.537704 3.736903
16.788785 6.509671 3.909561
16.784244 6.545351 3.756078
16.790886 6.544341 3.782718
16.794005 6.542969 3.813311
16.795618 6.540636 3.844114
16.797775 6.535165 3.871969
16.800153 6.526136 3.891889
16.818798 6.384153 3.946960
16.810100 6.537097 3.759907
16.816631 6.536522 3.789022
16.818842 6.535638 3.820272
16.819608 6.532852 3.851122
16.819331 6.525909 3.878754
16.813800 6.515160 3.899016
16.816068 6.131398 3.669097
16.826389 6.123199 3.718255
16.831876 6.114363 3.745947
16.824209 6.110290 3.779877
16.821835 6.109361 3.811472
16.822216 6.109792 3.841884
16.822231 6.112628 3.871643
16.823423 6.119404 3.900878
16.830440 6.131353 3.926590
16.828658 6.134202 3.672515
16.814340 6.129358 3.698294
16.850069 6.148890 3.946787
16.830801 6.132984 3.682405
16.839449 6.180562 3.957080
16.835645 6.210587 3.962633
16.833488 6.240975 3.965087
16.832435 6.272450 3.965781
16.831521 6.304577 3.964574
16.829779 6.337143 3.960491
16.829786 6.369354 3.953165
16.836610 6.393229 3.947541
16.826526 6.406983 3.942034
16.826861 6.434037 3.935293
16.824214 6.461287 3.927137
16.815784 6.491375 3.914992
16.813451 6.527188 3.720078
16.823700 6.526340 3.726227
16.825255 6.528500 3.740047
16.836628 6.527457 3.767674
16.840732 6.526995 3.797963
16.841795 6.525836 3.829579
16.841722 6.521440 3.860696
16.839543 6.508764 3.891266
16.850942 6.105917 3.760322
16.846793 6.102920 3.788855
16.845423 6.101761 3.819628
16.845243 6.102318 3.850834
16.845754 6.105410 3.881483
16.848338 6.112534 3.909478
16.854498 6.123681 3.930364
16.849182 6.410285 3.945096
16.836035 6.135393 3.671844
16.872425 6.103968 3.747709
16.871490 6.099404 3.768626
16.870733 6.096240 3.797078
16.870377 6.095019 3.828202
16.870442 6.095800 3.859748
16.871316 6.099661 3.890163
16.874189 6.109003 3.917333
16.860652 6.109916 3.738544
16.880509 6.128921 3.941177
16.862157 6.119056 3.717411
16.847464 6.128876 3.697701
16.878531 6.154918 3.955406
16.849880 6.135586 3.678548
16.860966 6.133372 3.686634
16.869935 6.178687 3.960513
16.865930 6.208903 3.964395
16.864577 6.240321 3.966205
16.864138 6.272106 3.966721
16.863884 6.304079 3.966237
16.863332 6.336014 3.963947
16.862548 6.367554 3.959061
16.861817 6.398035 3.951436
16.866919 6.422406 3.945174
16.853870 6.433752 3.938115
16.848468 6.456396 3.928616
16.851214 6.482804 3.913151
16.841896 6.521515 3.735057
16.856076 6.518370 3.752413
16.861620 6.517543 3.777911
16.863405 6.517088 3.808237
16.863801 6.515266 3.839817
16.863751 6.509502 3.870003
16.864309 6.499147 3.892752
16.878052 6.440485 3.940042
16.876840 6.510368 3.747250
16.882231 6.508983 3.762420
16.884583 6.508711 3.788098
16.885495 6.508128 3.818607
16.885676 6.505531 3.850216
16.884940 6.498544 3.880356
16.878195 6.487513 3.903301
16.893847 6.100859 3.748930
16.897120 6.094956 3.774268
16.897938 6.091733 3.804236
16.897924 6.090765 3.835999
16.898020 6.092099 3.867625
16.899056 6.097162 3.897580
16.902942 6.108381 3.923816
16.883891 6.109187 3.730551
16.914393 6.125966 3.943472
16.895369 6.117203 3.713456
16.876854 6.127719 3.697869
16.904324 6.150293 3.955694
16.877740 6.132638 3.688227
16.899766 6.178312 3.962598
16.897171 6.208454 3.965562
16.896253 6.240072 3.966693
16.896038 6.272014 3.967043
16.895987 6.304003 3.966911
16.895832 6.335941 3.966004
16.895290 6.367555 3.963136
16.893940 6.398297 3.957347
16.891760 6.427844 3.947928
16.895282 6.451260 3.937508
16.878409 6.464453 3.924745
16.898341 6.503190 3.747775
16.901364 6.502477 3.754037
16.904428 6.502190 3.771380
16.907132 6.501984 3.797597
16.908324 6.501105 3.828254
16.908732 6.497365 3.860900
16.908812 6.484832 3.898465
16.907834 6.466278 3.926094
16.921874 6.098782 3.752250
16.926547 6.093800 3.779361
16.927368 6.091336 3.810855
16.926706 6.090895 3.843369
16.926495 6.092902 3.874905
16.927333 6.098760 3.904085
16.931434 6.109891 3.927862
16.911719 6.106679 3.730913
16.943510 6.126827 3.943326
16.923427 6.112268 3.720137
16.897204 6.124832 3.700534
16.934909 6.149140 3.955191
16.891009 6.130937 3.691817
16.930318 6.177406 3.962678
16.928614 6.208274 3.965927
16.928115 6.240025 3.966922
16.928012 6.272000 3.967095
16.927997 6.304000 3.967109
16.927942 6.335981 3.966779
16.927564 6.367771 3.965336
16.926147 6.398665 3.961089
16.922784 6.427235 3.952722
16.917739 6.451078 3.939930
16.915424 6.499281 3.754776
16.919337 6.498598 3.762710
16.926776 6.498049 3.779650
16.931809 6.497731 3.805190
16.933705 6.496590 3.835437
16.935480 6.492819 3.866982
16.941072 6.486503 3.892397
16.936991 6.472496 3.919390
16.951694 6.099536 3.756719
16.958687 6.097304 3.784705
16.955280 6.095465 3.819450
16.953938 6.095878 3.851778
16.953212 6.098659 3.882922
16.952755 6.104895 3.910644
16.953566 6.114392 3.929812
16.941873 6.104669 3.736083
16.969332 6.129046 3.937381
16.960401 6.108028 3.732550
16.965427 6.150177 3.950999
16.961934 6.177623 3.960404
16.960434 6.208263 3.965144
16.960058 6.240022 3.966743
16.960005 6.271999 3.967097
16.959988 6.303995 3.967082
16.959887 6.335973 3.966891
16.959407 6.367723 3.965890
16.957940 6.398610 3.962703
16.954409 6.427331 3.955053
16.947757 6.452047 3.941411
16.939279 6.496641 3.769915
16.953760 6.495882 3.786091
16.960130 6.495457 3.809760
16.962179 6.494259 3.838967
16.964032 6.491023 3.869068
16.966553 6.483743 3.897635
16.971533 6.470276 3.923278
16.984093 6.103719 3.776032
16.980969 6.102967 3.799221
16.979390 6.103338 3.829831
16.978137 6.105041 3.861615
16.976549 6.109185 3.892426
16.973323 6.116355 3.918702
16.977749 6.103307 3.759499
16.973027 6.105698 3.743181
16.995709 6.108176 3.762307
16.997590 6.112417 3.741817
17.001893 6.110796 3.780042
17.002866 6.112629 3.808474
17.001340 6.114489 3.840648
16.999448 6.117462 3.872541
16.997839 6.124464 3.903480
16.989055 6.130621 3.926290
16.995603 6.151202 3.939386
16.993861 6.178865 3.953731
16.992550 6.208793 3.961839
16.992117 6.240140 3.965478
16.992009 6.272009 3.966644
16.991935 6.303946 3.966852
16.991730 6.335891 3.966484
16.990844 6.367562 3.965346
16.988472 6.397708 3.962481
16.985275 6.425712 3.955737
16.979843 6.450789 3.942744
16.972747 6.495047 3.779239
16.985662 6.494492 3.789975
16.991080 6.493666 3.811643
16.992677 6.491995 3.840309
16.993920 6.488259 3.870790
16.997287 6.480446 3.899695
17.002667 6.467281 3.924419
16.993099 6.108824 3.749655
17.016456 6.136340 3.902121
17.008397 6.140706 3.919865
17.035154 6.123939 3.740710
17.015548 6.116571 3.756347
17.028022 6.123194 3.784462
17.023965 6.125153 3.820143
17.021130 6.128165 3.853762
17.017267 6.130976 3.882855
17.026086 6.139907 3.891676
17.029108 6.150103 3.906444
17.020289 6.157901 3.927688
17.026101 6.180962 3.940285
17.024716 6.210055 3.954087
17.024151 6.240550 3.961309
17.024002 6.272107 3.964598
17.023631 6.303802 3.965662
17.023192 6.335439 3.965323
17.022047 6.367100 3.963483
17.018271 6.397532 3.959874
17.010566 6.421219 3.955342
17.012907 6.446699 3.942198
17.005660 6.493277 3.782483
17.017966 6.491963 3.791197
17.023070 6.489890 3.812193
17.023712 6.487220 3.841442
17.024015 6.483007 3.872126
17.028630 6.474406 3.901056
17.026442 6.463601 3.924261
17.053009 6.129565 3.731309
17.052925 6.134307 3.778664
17.046196 6.135599 3.802938
17.042909 6.139906 3.835101
17.038626 6.145722 3.873838
17.048626 6.162809 3.896207
17.040103 6.170020 3.919608
17.046823 6.463062 3.913205
17.038721 6.451879 3.931799
17.053754 6.130740 3.753356
17.058588 6.131202 3.733855
17.074253 6.141815 3.770046
17.069380 6.133649 3.728957
17.064433 6.142983 3.790250
17.066130 6.151400 3.815383
17.060291 6.157025 3.850684
17.057193 6.162047 3.876083
17.061002 6.170302 3.888143
17.061787 6.181204 3.905339
17.051694 6.189166 3.927856
17.056172 6.212190 3.940335
17.055216 6.240879 3.952376
17.055749 6.272191 3.958539
17.054633 6.303628 3.961731
17.053153 6.334286 3.962310
17.051994 6.364897 3.960026
17.048856 6.396326 3.954757
17.039105 6.427701 3.946103
17.068306 6.458631 3.897762
17.063276 6.444629 3.923752
17.052730 6.469692 3.893071
17.037614 6.489217 3.783302
17.049503 6.486257 3.791310
17.056717 6.481515 3.812690
17.051769 6.478977 3.845037
17.050075 6.475317 3.873215
17.085589 6.164099 3.810544
17.080514 6.169241 3.834874
17.074476 6.177378 3.871959
17.081329 6.196981 3.897594
17.070798 6.202676 3.920944
17.078438 6.470391 3.824128
17.073334 6.467685 3.853496
17.067295 6.466454 3.877525
17.087975 6.140299 3.749984
17.076695 6.135245 3.735027
17.104025 6.153462 3.767680
17.086067 6.136343 3.729175
17.085243 6.155007 3.790039
17.098411 6.169321 3.799912
17.098859 6.178668 3.818715
17.097205 6.190498 3.848936
17.091146 6.196303 3.876419
17.095574 6.209983 3.892159
17.089176 6.216003 3.912066
17.079318 6.220816 3.929448
17.080676 6.239632 3.938822
17.087248 6.270859 3.945430
17.084072 6.302887 3.952674
17.081110 6.333701 3.954860
17.075733 6.359281 3.955324
17.079699 6.390231 3.947072
17.069491 6.419665 3.940028
17.101325 6.460751 3.805888
17.099303 6.454151 3.834860
17.088537 6.452775 3.871737
17.087075 6.442147 3.902799
17.084341 6.430870 3.923801
17.083959 6.472464 3.801856
17.068201 6.481301 3.782852
17.078603 6.476977 3.789466
17.106709 6.167079 3.785886
17.114375 6.210084 3.849293
17.104683 6.210324 3.872068
17.118429 6.227810 3.869932
17.107514 6.232451 3.899561
17.093574 6.233224 3.923296
17.104418 6.255689 3.926251
17.103937 6.397898 3.930411
17.111267 6.438131 3.854120
17.106996 6.432198 3.882891
17.103290 6.420683 3.912295
17.090286 6.414432 3.932588
17.099683 6.467372 3.781641
17.098281 6.467001 3.789946
17.114499 6.146118 3.750579
17.099914 6.139552 3.738069
17.129845 6.159132 3.760809
17.094667 6.137675 3.730258
17.128354 6.177626 3.778345
17.116951 6.185689 3.801250
17.114051 6.197653 3.826475
17.124473 6.215254 3.835191
17.125029 6.225605 3.850647
17.128967 6.241299 3.863787
17.124606 6.250062 3.886231
17.118833 6.257270 3.907884
17.119566 6.272385 3.919869
17.110943 6.279302 3.932746
17.108818 6.300783 3.938477
17.106784 6.330969 3.940746
17.101073 6.365811 3.941082
17.117936 6.382046 3.922906
17.117294 6.400681 3.912937
17.125472 6.426123 3.842407
17.123959 6.419062 3.863776
17.121149 6.409908 3.890944
17.118450 6.438150 3.831932
17.120891 6.454432 3.778200
17.121692 6.450283 3.787119
17.119981 6.443323 3.811078
17.138492 6.205021 3.794973
17.130373 6.211569 3.816466
17.146922 6.234868 3.812833
17.135560 6.237475 3.840452
17.148770 6.270453 3.840635
17.136795 6.267990 3.872729
17.128565 6.273618 3.902355
17.153651 6.307894 3.847376
17.144912 6.301781 3.873077
17.135329 6.298592 3.900016
17.123842 6.291912 3.921362
17.153576 6.341107 3.847859
17.147087 6.333688 3.873351
17.138362 6.328340 3.898707
17.125522 6.319030 3.922094
17.148998 6.376006 3.841861
17.143915 6.364297 3.871872
17.138947 6.354018 3.894177
17.125090 6.353577 3.919319
17.148279 6.400499 3.816437
17.136807 6.407225 3.842634
17.135515 6.394077 3.869133
17.130467 6.381675 3.898988
17.140515 6.425617 3.797455
17.132492 6.424323 3.822550
17.133177 6.150932 3.752243
17.124064 6.145617 3.747144
17.142712 6.162093 3.757871
17.144914 6.179965 3.767630
17.148947 6.203346 3.780131
17.152533 6.224128 3.792613
17.157933 6.243622 3.799907
17.156561 6.259477 3.814620
17.159556 6.285117 3.821987
17.161453 6.316697 3.824695
17.160473 6.348755 3.822545
17.157712 6.374408 3.816559
17.159605 6.386691 3.801563
17.154730 6.404580 3.795058
17.153356 6.415375 3.784342
17.144043 6.430514 3.781073
17.136602 6.440312 3.777361
17.140316 6.155520 3.753511
17.149034 6.175087 3.762078
17.156948 6.208950 3.773633
17.168419 6.250502 3.779909
17.161986 6.236888 3.785522
17.174554 6.285682 3.781460
17.170677 6.271988 3.787318
17.163909 6.264908 3.800970
17.176817 6.317519 3.780941
17.174129 6.304367 3.787879
17.167747 6.294243 3.803254
17.176014 6.346583 3.779017
17.174501 6.335530 3.786066
17.168777 6.326133 3.803048
17.171637 6.374340 3.777783
17.173074 6.361094 3.782236
17.166781 6.360394 3.798721
17.165635 6.395261 3.776877
17.164447 6.390039 3.784512
17.154967 6.415824 3.777462
3 43 102 44
3 135 160 136
3 103 102 135
3 159 215 160
3 215 260 216
3 260 301 261
3 45 103 104
3 46 45 105
3 106 78 47
3 48 47 78
3 136 160 161
3 136 104 103
3 166 138 105
3 106 105 138
3 161 216 217
3 163 161 221
3 224 166 163
3 217 261 262
3 221 217 269
3 272 224 221
3 261 301 262
3 304 262 301
3 316 272 269
3 313 346 355
3 358 316 313
3 346 387 355
3 355 387 400
3 1 50 2
3 5 1 6
3 11 5 12
3 19 11 20
3 28 19 29
3 64 36 66
3 36 70 66
3 78 107 79
3 81 78 82
3 50 49 81
3 64 66 92
3 66 70 95
3 95 125 94
3 138 167 139
3 107 106 138
3 152 186 185
3 152 188 186
3 222 218 197
3 222 197 167
3 185 186 206
3 186 242 206
3 270 218 222
3 224 272 270
3 242 243 287
3 314 263 270
3 272 316 314
3 287 288 329
3 356 305 314
3 316 358 356
3 329 330 371
3 398 347 356
3 358 401 398
3 439 397 398
3 401 441 439
3 471 438 439
3 441 473 471
3 2 51 3
3 6 2 7
3 12 6 13
3 20 12 21
3 29 20 30
3 36 29 37
3 70 42 75
3 42 77 75
3 79 108 80
3 82 79 83
3 51 50 82
3 70 75 95
3 126 101 132
3 101 134 132
3 164 162 137
3 164 139 167
3 108 107 139
3 126 132 152
3 188 158 194
3 158 196 194
3 197 162 164
3 167 197 164
3 194 244 243
3 212 194 196
3 212 253 251
3 218 263 219
3 244 289 288
3 251 296 244
3 298 251 253
3 263 305 264
3 289 331 330
3 333 296 303
3 298 303 296
3 305 347 306
3 331 340 373
3 333 340 331
3 395 388 379
3 395 379 348
3 372 373 414
3 436 388 395
3 397 438 436
3 422 423 454
3 415 422 414
3 468 429 436
3 438 470 468
3 453 454 484
3 499 461 468
3 470 501 499
3 527 492 499
3 501 529 527
3 527 554 526
3 554 527 529
3 593 557 583
3 583 595 593
3 628 592 593
3 595 630 628
3 669 627 628
3 630 671 669
3 720 668 669
3 720 736 719
3 3 52 4
3 7 3 8
3 13 7 14
3 21 13 22
3 30 21 31
3 37 30 38
3 76 38 71
3 42 76 77
3 80 108 109
3 110 80 109
3 52 51 83
3 76 71 96
3 133 96 127
3 101 133 134
3 137 162 165
3 168 137 165
3 109 108 140
3 110 109 142
3 133 127 153
3 195 153 189
3 158 195 196
3 165 220 198
3 168 165 198
3 195 189 207
3 252 207 246
3 212 252 253
3 219 264 220
3 297 252 246
3 253 297 298
3 264 306 265
3 303 297 291
3 298 297 303
3 306 348 307
3 340 341 374
3 334 340 333
3 379 389 380
3 349 348 379
3 373 374 415
3 388 429 389
3 423 424 455
3 416 423 415
3 429 461 430
3 454 455 485
3 461 492 462
3 485 486 513
3 520 526 528
3 520 528 530
3 513 514 547
3 526 554 528
3 528 554 558
3 547 548 576
3 584 592 594
3 584 594 596
3 576 577 614
3 594 627 629
3 631 596 594
3 614 615 652
3 629 668 670
3 654 631 629
3 654 672 673
3 666 667 692
3 653 666 652
3 670 719 721
3 672 670 722
3 694 673 672
3 694 723 724
3 734 717 733
3 734 692 717
3 719 736 721
3 737 721 736
3 738 722 737
3 723 740 724
3 741 742 739
3 744 745 741
3 747 748 744
3 750 751 747
3 753 754 750
3 733 755 734
3 735 734 755
3 4 52 53
3 54 4 53
3 14 8 15
3 22 14 23
3 31 22 32
3 67 32 65
3 38 67 71
3 84 110 111
3 84 111 112
3 54 53 85
3 67 65 93
3 71 67 93
3 97 127 96
3 141 168 169
3 170 141 169
3 111 110 142
3 112 111 145
3 127 128 154
3 154 189 153
3 198 220 223
3 198 223 225
3 170 169 199
3 189 190 208
3 208 246 207
3 223 266 254
3 225 223 254
3 246 247 291
3 265 307 266
3 291 292 334
3 307 349 308
3 341 342 375
3 335 341 334
3 380 390 381
3 350 349 380
3 374 375 416
3 389 430 390
3 424 425 456
3 417 424 416
3 430 462 431
3 455 456 486
3 462 493 463
3 486 487 514
3 493 521 494
3 521 520 530
3 514 515 548
3 530 559 531
3 548 549 577
3 559 585 560
3 585 584 596
3 577 578 615
3 619 631 632
3 619 632 633
3 651 624 646
3 651 616 624
3 631 654 632
3 632 654 673
3 667 651 646
3 653 651 667
3 673 695 674
3 724 725 696
3 696 725 726
3 732 713 731
3 732 733 717
3 693 717 692
3 724 740 725
3 725 743 726
3 745 746 742
3 748 749 745
3 751 752 748
3 731 754 732
3 733 732 754
3 9 55 10
3 15 9 16
3 23 15 24
3 32 23 33
3 65 39 68
3 39 72 68
3 85 113 86
3 55 54 85
3 65 68 93
3 68 72 98
3 98 128 97
3 143 171 144
3 145 143 146
3 113 112 145
3 128 129 155
3 155 190 154
3 199 226 200
3 171 170 199
3 190 191 209
3 209 247 208
3 254 267 255
3 226 225 254
3 247 248 292
3 266 308 267
3 292 293 335
3 308 350 309
3 342 343 376
3 336 342 335
3 381 391 382
3 351 350 381
3 375 376 417
3 390 431 391
3 425 426 457
3 418 425 417
3 431 463 432
3 456 457 487
3 463 494 464
3 487 488 515
3 494 522 495
3 522 521 531
3 515 516 549
3 531 560 532
3 549 550 578
3 560 586 561
3 586 585 597
3 578 579 616
3 597 620 598
3 620 619 633
3 624 625 647
3 617 624 616
3 655 674 675
3 655 675 676
3 690 662 687
3 690 647 662
3 674 695 675
3 675 697 676
3 726 727 698
3 727 728 701
3 728 729 705
3 729 730 709
3 730 731 713
3 687 718 690
3 693 690 718
3 726 743 727
3 746 727 743
3 749 728 746
3 752 729 749
3 731 730 752
3 10 55 56
3 57 10 56
3 24 16 25
3 33 24 34
3 39 33 40
3 40 72 39
3 86 114 87
3 56 55 86
3 57 56 88
3 72 73 99
3 99 129 98
3 144 171 172
3 173 144 172
3 114 113 146
3 129 130 156
3 156 191 155
3 200 227 201
3 172 171 200
3 173 172 202
3 191 192 210
3 210 248 209
3 255 268 256
3 227 226 255
3 248 249 293
3 267 309 268
3 293 294 336
3 309 351 310
3 343 344 377
3 337 343 336
3 382 392 383
3 352 351 382
3 376 377 418
3 391 432 392
3 426 427 458
3 419 426 418
3 432 464 433
3 457 458 488
3 464 495 465
3 488 489 516
3 495 523 496
3 523 522 532
3 516 517 550
3 532 561 533
3 550 551 579
3 561 587 562
3 587 586 598
3 579 580 617
3 598 621 599
3 621 620 634
3 625 626 648
3 618 625 617
3 634 656 635
3 676 677 657
3 657 677 678
3 662 663 688
3 648 662 647
3 676 697 677
3 677 699 678
3 701 702 698
3 705 706 701
3 709 710 705
3 714 715 709
3 688 714 687
3 17 58 18
3 25 17 26
3 34 25 35
3 40 34 41
3 41 73 40
3 87 114 115
3 116 87 115
3 58 57 88
3 73 74 100
3 100 130 99
3 147 174 148
3 115 114 147
3 116 115 149
3 130 131 157
3 157 192 156
3 201 227 228
3 229 201 228
3 174 173 202
3 192 193 211
3 211 249 210
3 256 268 271
3 256 271 273
3 229 228 257
3 249 250 294
3 271 311 299
3 273 271 299
3 294 295 337
3 310 352 311
3 344 345 378
3 338 344 337
3 383 393 384
3 353 352 383
3 377 378 419
3 392 433 393
3 427 428 459
3 420 427 419
3 433 465 434
3 458 459 489
3 465 496 466
3 489 490 517
3 496 524 497
3 524 523 533
3 517 518 551
3 555 562 563
3 555 563 564
3 551 552 580
3 562 587 563
3 599 600 588
3 588 600 601
3 613 590 611
3 613 581 590
3 599 621 600
3 635 636 622
3 622 636 637
3 626 613 611
3 618 613 626
3 635 656 636
3 636 658 637
3 658 657 678
3 663 664 689
3 649 663 648
3 678 700 679
3 702 703 699
3 706 707 702
3 710 711 706
3 715 716 710
3 689 715 688
3 18 58 59
3 60 18 59
3 63 27 62
3 35 69 41
3 41 69 74
3 89 117 90
3 59 58 89
3 60 59 91
3 122 63 62
3 69 63 123
3 74 124 100
3 100 124 131
3 148 174 175
3 176 148 175
3 117 116 149
3 122 121 151
3 151 182 183
3 124 123 184
3 131 187 157
3 157 187 193
3 203 230 204
3 175 174 203
3 176 175 205
3 237 213 236
3 237 238 214
3 182 214 238
3 184 183 240
3 187 184 241
3 193 245 211
3 211 245 250
3 257 274 258
3 230 229 257
3 237 236 259
3 259 282 283
3 239 238 284
3 240 239 285
3 241 240 286
3 245 241 290
3 250 290 295
3 299 312 300
3 274 273 299
3 324 302 323
3 282 302 324
3 284 283 326
3 285 284 327
3 286 285 328
3 290 286 332
3 295 332 338
3 311 353 312
3 324 323 339
3 339 366 367
3 326 325 368
3 327 326 369
3 328 327 370
3 345 370 378
3 338 332 345
3 384 394 385
3 354 353 384
3 367 366 386
3 386 410 411
3 369 368 412
3 370 369 413
3 378 413 420
3 393 434 394
3 411 410 421
3 421 451 452
3 428 452 459
3 420 413 428
3 434 466 435
3 452 451 460
3 460 459 452
3 466 497 467
3 490 491 518
3 497 525 498
3 525 524 534
3 518 519 552
3 534 556 535
3 556 555 564
3 552 553 581
3 564 589 565
3 589 588 601
3 590 591 612
3 582 590 581
3 601 623 602
3 623 622 637
3 611 612 649
3 637 659 638
3 679 680 660
3 660 680 681
3 686 661 685
3 686 689 664
3 650 664 649
3 679 700 680
3 680 704 681
3 707 708 703
3 711 712 707
3 685 716 686
3 689 686 716
3 27 60 61
3 27 61 62
3 90 117 118
3 90 119 91
3 91 61 60
3 62 120 121
3 150 176 177
3 150 118 117
3 119 118 179
3 120 119 180
3 121 181 151
3 151 181 182
3 204 230 231
3 204 232 205
3 205 177 176
3 178 177 234
3 179 178 235
3 213 235 236
3 214 180 213
3 182 181 214
3 258 274 275
3 258 231 230
3 232 231 277
3 233 232 278
3 234 233 279
3 235 234 280
3 236 281 259
3 259 281 282
3 300 312 315
3 300 275 274
3 276 275 318
3 277 276 319
3 278 277 320
3 279 278 321
3 280 279 322
3 302 322 323
3 282 281 302
3 315 354 357
3 317 315 359
3 318 317 360
3 319 318 361
3 320 319 362
3 321 320 363
3 322 321 364
3 323 365 339
3 339 365 366
3 385 394 396
3 385 357 354
3 359 357 402
3 360 359 403
3 361 360 404
3 362 361 405
3 363 362 406
3 364 363 407
3 365 364 408
3 366 409 386
3 386 409 410
3 396 435 437
3 399 396 440
3 402 399 442
3 403 402 443
3 404 403 444
3 405 404 445
3 406 405 446
3 407 406 447
3 408 407 448
3 409 408 449
3 410 450 421
3 421 450 451
3 437 467 469
3 440 437 472
3 442 440 474
3 443 442 475
3 444 443 476
3 445 444 477
3 446 445 478
3 447 446 479
3 448 447 480
3 449 448 481
3 450 449 482
3 451 483 460
3 460 483 491
3 469 498 500
3 472 469 502
3 474 472 503
3 475 474 504
3 476 475 505
3 477 476 506
3 478 477 507
3 479 478 508
3 480 479 509
3 481 480 510
3 482 481 511
3 483 482 512
3 491 512 519
3 498 525 500
3 535 500 525
3 503 502 537
3 504 503 538
3 505 504 539
3 506 505 540
3 507 506 541
3 508 507 542
3 509 508 543
3 510 509 544
3 511 510 545
3 512 511 546
3 519 546 553
3 535 556 536
3 565 536 556
3 538 537 567
3 539 538 568
3 540 539 569
3 541 540 570
3 542 541 571
3 543 542 572
3 544 543 573
3 545 544 574
3 546 545 575
3 553 575 582
3 565 589 566
3 602 566 589
3 568 567 604
3 569 568 605
3 570 569 606
3 571 570 607
3 572 571 608
3 573 572 609
3 574 573 610
3 591 610 612
3 582 575 591
3 602 623 603
3 638 603 623
3 605 604 640
3 606 605 641
3 607 606 642
3 608 607 643
3 609 608 644
3 610 609 645
3 612 645 650
3 638 659 639
3 660 639 659
3 681 640 660
3 642 641 683
3 643 642 684
3 661 684 685
3 665 644 661
3 650 645 665
3 681 704 682
3 708 682 704
3 712 683 708
3 685 684 712
3 44 102 103
3 159 160 135
3 136 103 135
3 160 215 216
3 216 260 261
3 44 103 45
3 105 45 104
3 106 47 105
3 81 48 78
3 136 161 104
3 166 105 163
3 160 216 161
3 221 161 217
3 221 224 163
3 216 261 217
3 269 217 262
3 269 272 221
3 304 313 262
3 313 316 269
3 304 346 313
3 355 358 313
3 355 400 358
3 49 50 1
3 1 2 6
3 5 6 12
3 11 12 20
3 19 20 29
3 64 28 36
3 106 107 78
3 78 79 82
3 82 50 81
3 66 95 92
3 126 125 95
3 166 167 138
3 139 107 138
3 152 185 126
3 222 167 224
3 186 188 242
3 263 218 270
3 222 224 270
3 243 288 287
3 305 263 314
3 270 272 314
3 288 330 329
3 347 305 356
3 314 316 356
3 330 372 371
3 397 347 398
3 356 358 398
3 438 397 439
3 398 401 439
3 470 438 471
3 439 441 471
3 50 51 2
3 2 3 7
3 6 7 13
3 12 13 21
3 20 21 30
3 29 30 37
3 70 36 42
3 107 108 79
3 79 80 83
3 83 51 82
3 95 101 126
3 164 137 139
3 140 108 139
3 152 158 188
3 197 218 162
3 188 194 243
3 212 251 194
3 219 263 264
3 243 244 288
3 296 289 244
3 296 251 298
3 264 305 306
3 288 289 330
3 333 331 296
3 306 347 348
3 331 373 330
3 395 348 397
3 373 415 414
3 429 388 436
3 395 397 436
3 453 422 454
3 423 422 415
3 461 429 468
3 436 438 468
3 454 485 484
3 492 461 499
3 468 470 499
3 526 492 527
3 499 501 527
3 554 529 558
3 593 592 557
3 627 592 628
3 593 595 628
3 668 627 669
3 628 630 669
3 719 668 720
3 51 52 3
3 3 4 8
3 7 8 14
3 13 14 22
3 21 22 31
3 30 31 38
3 76 42 38
3 110 84 80
3 84 52 83
3 101 96 133
3 168 141 137
3 109 140 142
3 158 153 195
3 165 162 220
3 212 207 252
3 220 264 265
3 291 297 246
3 252 297 253
3 265 306 307
3 303 291 333
3 307 348 349
3 373 340 374
3 341 340 334
3 388 389 379
3 380 349 379
3 374 416 415
3 389 429 430
3 454 423 455
3 424 423 416
3 430 461 462
3 455 486 485
3 462 492 493
3 486 514 513
3 520 493 526
3 514 548 547
3 528 558 530
3 548 577 576
3 584 559 592
3 577 615 614
3 592 627 594
3 629 631 594
3 615 653 652
3 627 668 629
3 654 629 672
3 691 666 692
3 667 666 653
3 668 719 670
3 722 670 721
3 694 672 723
3 734 735 692
3 722 721 737
3 723 722 738
3 723 738 740
3 739 742 740
3 741 745 742
3 744 748 745
3 747 751 748
3 750 754 751
3 733 754 755
3 54 9 4
3 8 9 15
3 14 15 23
3 22 23 32
3 67 38 32
3 52 84 112
3 71 93 96
3 128 127 97
3 170 143 141
3 111 142 145
3 153 127 154
3 190 189 154
3 168 198 225
3 207 189 208
3 247 246 208
3 223 220 266
3 247 292 291
3 266 307 308
3 292 335 334
3 308 349 350
3 374 341 375
3 342 341 335
3 389 390 380
3 381 350 380
3 375 417 416
3 390 430 431
3 455 424 456
3 425 424 417
3 431 462 463
3 456 487 486
3 463 493 494
3 487 515 514
3 520 521 493
3 531 521 530
3 515 549 548
3 531 559 560
3 549 578 577
3 584 585 559
3 597 585 596
3 578 616 615
3 619 597 631
3 651 653 616
3 632 673 633
3 667 646 692
3 694 695 673
3 724 696 694
3 732 717 713
3 718 717 693
3 725 740 743
3 742 746 743
3 745 749 746
3 748 752 749
3 731 752 754
3 54 55 9
3 9 10 16
3 15 16 24
3 23 24 33
3 65 32 39
3 112 113 85
3 86 55 85
3 68 98 93
3 129 128 98
3 170 171 143
3 143 144 146
3 146 113 145
3 154 128 155
3 191 190 155
3 225 226 199
3 200 171 199
3 208 190 209
3 248 247 209
3 266 267 254
3 255 226 254
3 248 293 292
3 267 308 309
3 293 336 335
3 309 350 351
3 375 342 376
3 343 342 336
3 390 391 381
3 382 351 381
3 376 418 417
3 391 431 432
3 456 425 457
3 426 425 418
3 432 463 464
3 457 488 487
3 464 494 495
3 488 516 515
3 521 522 494
3 532 522 531
3 516 550 549
3 532 560 561
3 550 579 578
3 585 586 560
3 598 586 597
3 579 617 616
3 619 620 597
3 634 620 633
3 646 624 647
3 625 624 617
3 655 634 674
3 690 693 647
3 675 695 697
3 726 698 696
3 698 727 701
3 701 728 705
3 705 729 709
3 730 713 709
3 687 714 718
3 728 727 746
3 729 728 749
3 730 729 752
3 57 17 10
3 16 17 25
3 24 25 34
3 33 34 40
3 73 72 40
3 113 114 86
3 56 86 88
3 98 72 99
3 130 129 99
3 173 147 144
3 147 114 146
3 155 129 156
3 192 191 156
3 226 227 200
3 172 200 202
3 209 191 210
3 249 248 210
3 267 268 255
3 256 227 255
3 249 294 293
3 268 309 310
3 294 337 336
3 310 351 352
3 376 343 377
3 344 343 337
3 391 392 382
3 383 352 382
3 377 419 418
3 392 432 433
3 457 426 458
3 427 426 419
3 433 464 465
3 458 489 488
3 465 495 496
3 489 517 516
3 522 523 495
3 533 523 532
3 517 551 550
3 533 561 562
3 551 580 579
3 586 587 561
3 599 587 598
3 580 618 617
3 620 621 598
3 635 621 634
3 647 625 648
3 626 625 618
3 655 656 634
3 676 657 655
3 687 662 688
3 663 662 648
3 677 697 699
3 698 702 699
3 701 706 702
3 705 710 706
3 709 715 710
3 715 714 688
3 57 58 17
3 17 18 26
3 25 26 35
3 34 35 41
3 74 73 41
3 116 89 87
3 89 58 88
3 99 73 100
3 131 130 100
3 173 174 147
3 115 147 149
3 156 130 157
3 193 192 157
3 229 203 201
3 203 174 202
3 210 192 211
3 250 249 211
3 227 256 273
3 250 295 294
3 271 268 311
3 295 338 337
3 311 352 353
3 377 344 378
3 345 344 338
3 392 393 383
3 384 353 383
3 378 420 419
3 393 433 434
3 458 427 459
3 428 427 420
3 434 465 466
3 459 490 489
3 466 496 497
3 490 518 517
3 523 524 496
3 534 524 533
3 518 552 551
3 555 534 562
3 552 581 580
3 587 599 588
3 613 618 581
3 621 635 622
3 626 611 648
3 636 656 658
3 679 658 678
3 688 663 689
3 664 663 649
3 699 700 678
3 699 703 700
3 702 707 703
3 706 711 707
3 710 716 711
3 716 715 689
3 60 27 18
3 63 35 27
3 63 69 35
3 116 117 89
3 59 89 91
3 121 122 62
3 123 63 122
3 74 69 124
3 176 150 148
3 150 117 149
3 151 183 122
3 184 123 183
3 131 124 187
3 229 230 203
3 175 203 205
3 213 237 214
3 182 238 183
3 240 183 239
3 241 184 240
3 193 187 245
3 273 274 257
3 258 230 257
3 259 283 237
3 284 238 283
3 285 239 284
3 286 240 285
3 290 241 286
3 245 290 250
3 311 312 299
3 300 274 299
3 282 324 283
3 326 283 325
3 327 284 326
3 328 285 327
3 332 286 328
3 290 332 295
3 312 353 354
3 339 367 324
3 368 325 367
3 369 326 368
3 370 327 369
3 345 332 370
3 393 394 384
3 385 354 384
3 386 411 367
3 412 368 411
3 413 369 412
3 370 413 378
3 394 434 435
3 421 452 411
3 428 413 452
3 435 466 467
3 460 491 459
3 467 497 498
3 491 519 518
3 524 525 497
3 535 525 534
3 519 553 552
3 555 556 534
3 565 556 564
3 553 582 581
3 588 589 564
3 602 589 601
3 611 590 612
3 591 590 582
3 622 623 601
3 638 623 637
3 612 650 649
3 658 659 637
3 679 660 658
3 686 664 661
3 665 664 650
3 680 700 704
3 703 708 704
3 707 712 708
3 685 712 716
3 118 119 90
3 91 119 61
3 61 120 62
3 150 177 118
3 179 118 178
3 180 119 179
3 121 120 181
3 231 232 204
3 205 232 177
3 234 177 233
3 235 178 234
3 213 180 235
3 181 180 214
3 258 275 231
3 277 231 276
3 278 232 277
3 279 233 278
3 280 234 279
3 236 235 281
3 300 315 275
3 318 275 317
3 319 276 318
3 320 277 319
3 321 278 320
3 322 279 321
3 302 281 322
3 312 354 315
3 359 315 357
3 360 317 359
3 361 318 360
3 362 319 361
3 363 320 362
3 364 321 363
3 323 322 365
3 385 396 357
3 402 357 399
3 403 359 402
3 404 360 403
3 405 361 404
3 406 362 405
3 407 363 406
3 408 364 407
3 366 365 409
3 394 435 396
3 440 396 437
3 442 399 440
3 443 402 442
3 444 403 443
3 445 404 444
3 446 405 445
3 447 406 446
3 448 407 447
3 449 408 448
3 410 409 450
3 435 467 437
3 472 437 469
3 474 440 472
3 475 442 474
3 476 443 475
3 477 444 476
3 478 445 477
3 479 446 478
3 480 447 479
3 481 448 480
3 482 449 481
3 451 450 483
3 467 498 469
3 502 469 500
3 503 472 502
3 504 474 503
3 505 475 504
3 506 476 505
3 507 477 506
3 508 478 507
3 509 479 508
3 510 480 509
3 511 481 510
3 512 482 511
3 483 512 491
3 535 536 500
3 537 502 536
3 538 503 537
3 539 504 538
3 540 505 539
3 541 506 540
3 542 507 541
3 543 508 542
3 544 509 543
3 545 510 544
3 546 511 545
3 512 546 519
3 565 566 536
3 567 537 566
3 568 538 567
3 569 539 568
3 570 540 569
3 571 541 570
3 572 542 571
3 573 543 572
3 574 544 573
3 575 545 574
3 546 575 553
3 602 603 566
3 604 567 603
3 605 568 604
3 606 569 605
3 607 570 606
3 608 571 607
3 609 572 608
3 610 573 609
3 591 575 610
3 638 639 603
3 640 604 639
3 641 605 640
3 642 606 641
3 643 607 642
3 644 608 643
3 645 609 644
3 610 645 612
3 640 639 660
3 681 682 640
3 683 641 682
3 684 642 683
3 661 644 684
3 645 644 665
3 683 682 708
3 684 683 712
3 45 46 0
3 0 46 47
3 105 47 46
3 161 163 104
3 163 105 104
3 313 269 262
3 358 400 401
3 441 401 400
3 28 29 36
3 92 95 94
3 126 185 125
3 224 167 166
3 188 243 242
3 371 372 414
3 36 37 42
3 95 77 101
3 137 140 139
3 152 134 158
3 218 219 162
3 251 244 194
3 331 289 296
3 330 373 372
3 397 348 347
3 484 485 513
3 558 529 557
3 592 558 557
3 42 37 38
3 84 83 80
3 101 76 96
3 141 140 137
3 142 140 141
3 158 133 153
3 162 219 220
3 212 195 207
3 333 291 334
3 493 492 526
3 530 558 559
3 559 558 592
3 672 629 670
3 723 672 722
3 735 691 692
3 738 739 740
3 754 753 755
3 9 8 4
3 38 31 32
3 52 112 85
3 96 93 97
3 143 142 141
3 145 142 143
3 168 225 199
3 220 265 266
3 597 596 631
3 653 615 616
3 633 673 674
3 692 646 693
3 694 696 695
3 713 717 718
3 740 742 743
3 752 751 754
3 32 33 39
3 93 98 97
3 634 633 674
3 693 646 647
3 695 696 697
3 696 698 697
3 709 713 714
3 714 713 718
3 17 16 10
3 88 86 87
3 147 146 144
3 202 200 201
3 655 657 656
3 697 698 699
3 89 88 87
3 149 147 148
3 203 202 201
3 227 273 257
3 268 310 311
3 534 533 562
3 587 588 564
3 618 580 581
3 621 622 601
3 648 611 649
3 656 657 658
3 27 26 18
3 35 26 27
3 91 89 90
3 69 123 124
3 150 149 148
3 122 183 123
3 124 184 187
3 205 203 204
3 183 238 239
3 187 241 245
3 237 283 238
3 283 324 325
3 324 367 325
3 332 328 370
3 367 411 368
3 411 452 412
3 413 412 452
3 491 490 459
3 658 660 659
3 661 664 665
3 700 703 704
3 712 711 716
3 119 120 61
3 177 178 118
3 120 180 181
3 232 233 177
3 180 179 235
3 275 276 231
3 235 280 281
3 315 317 275
3 281 280 322
3 322 364 365
3 396 399 357
3 365 408 409
3 409 449 450
3 450 482 483
3 536 502 500
3 566 537 536
3 603 567 566
3 575 574 610
3 639 604 603
3 682 641 640
3 644 643 684
3 95 75 77
3 152 132 134
3 101 77 76
3 158 134 133
3 212 196 195
3 52 85 53
3 168 199 169
3 227 257 228
3 587 564 563
3 621 601 600
