ply
format ascii 1.0
element vertex 475
property float32 x
property float32 y
property float32 z
element face 854
property list uint8 int32 vertex_indices
end_header
7.298833 4.769014 3.572705
7.299217 4.772320 3.569728
7.302332 4.815443 3.538317
7.304258 4.766988 3.576968
7.304866 4.774085 3.573058
7.304207 4.782070 3.566765
7.307362 4.812506 3.543982
7.304767 4.815300 3.539651
7.334337 4.699228 3.618612
7.318137 4.765929 3.587385
7.320087 4.781484 3.579236
7.316558 4.799605 3.561308
7.316809 4.816766 3.545357
7.336166 4.698190 3.620521
7.337545 4.708746 3.619439
7.338118 4.743911 3.609895
7.334016 4.771120 3.594719
7.333506 4.787301 3.584825
7.328523 4.795710 3.574643
7.338823 4.807046 3.569627
7.329210 4.819605 3.549719
7.335264 4.829773 3.541351
7.356054 4.607985 3.648089
7.356364 4.614801 3.648032
7.345465 4.696678 3.629662
7.346094 4.717909 3.625391
7.350005 4.739726 3.621771
7.342209 4.798179 3.580898
7.357918 4.606145 3.652747
7.358080 4.612166 3.652172
7.359329 4.632496 3.652035
7.358772 4.670947 3.647004
7.357872 4.700169 3.640338
7.359676 4.727709 3.634238
7.361871 4.749746 3.626745
7.353793 4.764722 3.610963
7.350224 4.787366 3.593166
7.361211 4.810566 3.576863
7.364235 4.804338 3.584180
7.344486 4.836075 3.538910
7.351256 4.841098 3.536035
7.398434 4.512287 3.680721
7.365081 4.607625 3.667525
7.378708 4.588683 3.694104
7.385618 4.586065 3.709975
7.364186 4.625275 3.662765
7.373228 4.617334 3.683072
7.383270 4.608818 3.704948
7.364406 4.649972 3.657873
7.375410 4.649125 3.675702
7.383442 4.635594 3.697557
7.372126 4.681459 3.658910
7.374683 4.716486 3.649730
7.377841 4.746516 3.640055
7.375364 4.768104 3.623603
7.390254 4.766976 3.635184
7.406493 4.501249 3.681233
7.398652 4.513740 3.683133
7.394774 4.526396 3.688429
7.387413 4.554176 3.696062
7.388118 4.564446 3.705661
7.393019 4.574161 3.719595
7.393567 4.598412 3.723580
7.396137 4.631371 3.719391
7.390998 4.661876 3.694491
7.393027 4.649472 3.706875
7.389985 4.682511 3.678478
7.392630 4.710125 3.666030
7.394930 4.737360 3.655296
7.396652 4.757130 3.646152
7.397070 4.783474 3.621005
7.409059 4.773590 3.637739
7.377686 4.790296 3.603144
7.382478 4.811872 3.581633
7.394346 4.808133 3.588851
7.355422 4.843639 3.534803
7.358534 4.845094 3.534496
7.431797 4.464260 3.671227
7.420766 4.480432 3.676693
7.404917 4.515718 3.695150
7.415963 4.519401 3.720567
7.427181 4.519270 3.740305
7.393439 4.540227 3.698452
7.400609 4.547194 3.716985
7.416491 4.543080 3.740562
7.406581 4.577076 3.739113
7.408109 4.613809 3.741250
7.416254 4.646487 3.738136
7.405086 4.686818 3.694633
7.409122 4.668637 3.714475
7.418971 4.696024 3.704291
7.438859 4.455617 3.668390
7.441088 4.456973 3.671045
7.431933 4.470302 3.677402
7.419257 4.489336 3.685500
7.424503 4.496279 3.704187
7.434833 4.498569 3.727237
7.444015 4.505371 3.747737
7.436857 4.531482 3.759659
7.425807 4.564245 3.760688
7.422216 4.597229 3.760318
7.425226 4.628356 3.757782
7.437007 4.657183 3.754704
7.431957 4.676213 3.735014
7.417087 4.703941 3.694201
7.412368 4.711494 3.681789
7.424597 4.708356 3.699008
7.432552 4.696643 3.718600
7.434361 4.712230 3.705545
7.416187 4.736632 3.667146
7.415349 4.758062 3.653136
7.422376 4.790677 3.621899
7.433530 4.776581 3.642968
7.407037 4.800298 3.602744
7.405588 4.813759 3.583518
7.415578 4.811111 3.588715
7.450411 4.489785 3.737124
7.446211 4.551766 3.777332
7.440464 4.582696 3.778253
7.438610 4.614207 3.775294
7.440072 4.638240 3.769458
7.432073 4.720568 3.693012
7.449271 4.728983 3.701193
7.422740 4.804101 3.601674
7.446172 4.451715 3.669042
7.450226 4.452701 3.672353
7.464782 4.478476 3.730823
7.448168 4.461966 3.681945
7.449742 4.483322 3.725090
7.466543 4.489323 3.747613
7.436802 4.477232 3.691876
7.443002 4.482230 3.710539
7.462451 4.508607 3.765173
7.454701 4.529085 3.775307
7.467921 4.536866 3.786648
7.465262 4.566463 3.794182
7.457616 4.601403 3.792402
7.457019 4.635380 3.784760
7.453816 4.670168 3.761338
7.449890 4.654316 3.769452
7.452027 4.683691 3.748072
7.453738 4.703126 3.732201
7.448824 4.736816 3.690453
7.440135 4.740854 3.678474
7.461589 4.742899 3.694549
7.452965 4.719695 3.715439
7.469915 4.739835 3.706061
7.440527 4.760660 3.660611
7.432714 4.796097 3.617631
7.447825 4.787530 3.634666
7.462011 4.778474 3.650346
7.422440 4.811795 3.588646
7.418346 4.813903 3.584579
7.454546 4.470158 3.701184
7.458109 4.475064 3.716869
7.470284 4.518700 3.779185
7.480336 4.590426 3.807409
7.476605 4.621369 3.804002
7.479351 4.650688 3.796932
7.465974 4.685195 3.759060
7.468862 4.668925 3.775695
7.461008 4.749302 3.684460
7.452101 4.451118 3.671800
7.454725 4.455461 3.678701
7.459891 4.462935 3.693950
7.475255 4.469413 3.718077
7.490422 4.475101 3.737603
7.494938 4.489448 3.758828
7.484221 4.505997 3.774670
7.488839 4.518953 3.785758
7.492299 4.540906 3.798285
7.488496 4.565516 3.807159
7.507944 4.581700 3.817501
7.499974 4.613151 3.817578
7.497665 4.642229 3.812650
7.497193 4.664297 3.804612
7.488288 4.675360 3.789648
7.481593 4.694520 3.764956
7.483888 4.684959 3.776870
7.476249 4.707282 3.747175
7.480578 4.731596 3.725162
7.480410 4.757252 3.689481
7.493400 4.754095 3.706608
7.469428 4.765065 3.669896
7.482336 4.787745 3.645113
7.494248 4.783234 3.656473
7.507262 4.555318 3.809771
7.507546 4.685463 3.798783
7.495625 4.713129 3.759083
7.500126 4.700578 3.777758
7.512673 4.766016 3.704592
7.517786 4.465798 3.728589
7.523969 4.473248 3.742081
7.534082 4.488871 3.762030
7.507593 4.502495 3.776385
7.513864 4.518737 3.790039
7.522489 4.537334 3.802658
7.533693 4.561238 3.815108
7.534814 4.587728 3.824496
7.527395 4.611127 3.826400
7.523591 4.640537 3.823883
7.520618 4.670738 3.814724
7.526037 4.695819 3.805789
7.519622 4.707450 3.790941
7.513628 4.724731 3.764524
7.516458 4.716562 3.777808
7.506191 4.734903 3.743837
7.504828 4.768681 3.691330
7.498804 4.774595 3.674458
7.521752 4.775345 3.694126
7.510519 4.754557 3.721152
7.523658 4.797960 3.644279
7.521323 4.787805 3.665021
7.530543 4.772017 3.709368
7.535539 4.807331 3.629825
7.550569 4.816430 3.622510
7.538444 4.714931 3.800449
7.529295 4.742997 3.756528
7.535060 4.730838 3.779529
7.518058 4.779304 3.681060
7.542170 4.810241 3.628760
7.530775 4.505158 3.779843
7.548175 4.460627 3.722795
7.550312 4.463727 3.727791
7.556937 4.473621 3.741358
7.569939 4.489444 3.757322
7.556057 4.505608 3.776267
7.540806 4.520297 3.791343
7.549864 4.539343 3.803597
7.564028 4.558222 3.812323
7.559731 4.583026 3.822845
7.556337 4.610816 3.829492
7.553407 4.640221 3.830456
7.550985 4.670431 3.825646
7.548855 4.699932 3.815115
7.554683 4.721302 3.806983
7.550499 4.730175 3.796246
7.555593 4.757093 3.762064
7.562630 4.744011 3.787727
7.536170 4.761117 3.735320
7.550390 4.800598 3.659434
7.540232 4.786027 3.686288
7.558855 4.782712 3.714498
7.546609 4.807756 3.638868
7.569707 4.828717 3.614265
7.560200 4.818186 3.627972
7.564753 4.733312 3.802460
7.561345 4.773430 3.739986
7.563319 4.812028 3.644215
7.586041 4.841124 3.600460
7.569977 4.542318 3.802857
7.571482 4.461819 3.720350
7.579894 4.466593 3.726134
7.585643 4.476696 3.739112
7.599764 4.492063 3.751662
7.591187 4.513485 3.773076
7.569538 4.527139 3.791277
7.580908 4.539927 3.798174
7.584946 4.552985 3.804890
7.590755 4.578503 3.815551
7.587541 4.609404 3.826458
7.584843 4.640257 3.831528
7.582326 4.670824 3.830419
7.578225 4.699193 3.823589
7.572536 4.721627 3.813046
7.588018 4.761483 3.780874
7.584370 4.740985 3.801864
7.580876 4.776230 3.753953
7.577929 4.799807 3.685206
7.589525 4.795275 3.712927
7.577861 4.785041 3.732225
7.581916 4.812058 3.658739
7.580163 4.830168 3.620783
7.581522 4.821720 3.638927
7.583377 4.837339 3.607720
7.596566 4.847319 3.593768
7.599056 4.845742 3.599067
7.605262 4.780593 3.766005
7.611312 4.801533 3.713930
7.603594 4.793072 3.737685
7.594878 4.839064 3.612586
7.600726 4.832868 3.629162
7.606272 4.480129 3.736936
7.596674 4.540156 3.791979
7.605955 4.562372 3.803023
7.601117 4.467427 3.718062
7.603483 4.472029 3.725836
7.619341 4.479183 3.729024
7.623253 4.490797 3.741641
7.627834 4.513423 3.760233
7.620666 4.536627 3.780026
7.617938 4.553061 3.792540
7.627015 4.569305 3.799190
7.617256 4.581203 3.809244
7.621814 4.607191 3.817919
7.617567 4.639888 3.826965
7.614116 4.671092 3.829694
7.609240 4.700185 3.825922
7.599993 4.724885 3.816065
7.616758 4.749938 3.801494
7.615732 4.770013 3.784287
7.616131 4.805942 3.692876
7.630345 4.782669 3.773798
7.610426 4.813676 3.670245
7.633875 4.805635 3.706668
7.621604 4.791944 3.756468
7.623499 4.802833 3.723217
7.631574 4.800319 3.740056
7.606407 4.823703 3.649778
7.607181 4.850396 3.592282
7.615085 4.849733 3.597245
7.616658 4.842839 3.613517
7.626625 4.833720 3.636586
7.619669 4.471421 3.714696
7.620599 4.473903 3.719020
7.628545 4.476794 3.718385
7.636849 4.487493 3.730028
7.648834 4.504218 3.744053
7.661685 4.524049 3.755500
7.653229 4.546941 3.773162
7.636731 4.558728 3.788400
7.641222 4.573381 3.795563
7.640203 4.589154 3.804244
7.649585 4.612626 3.810695
7.651481 4.639077 3.817159
7.645327 4.670381 3.823765
7.640111 4.699745 3.823659
7.631597 4.726079 3.816689
7.652358 4.746343 3.804807
7.641749 4.767153 3.790344
7.653484 4.806218 3.689723
7.658851 4.780932 3.776243
7.643170 4.813248 3.673059
7.661806 4.804739 3.705809
7.645089 4.793820 3.758932
7.645824 4.805188 3.722092
7.658518 4.801530 3.740733
7.634408 4.823673 3.655767
7.619407 4.850937 3.595388
7.633511 4.845829 3.607156
7.647776 4.838586 3.624347
7.649578 4.831154 3.642141
7.657509 4.577527 3.789456
7.663225 4.602430 3.799852
7.668679 4.624241 3.806077
7.663334 4.836814 3.617418
7.670241 4.833764 3.625123
7.670698 4.508605 3.734345
7.672111 4.515210 3.743497
7.685889 4.529876 3.746980
7.682507 4.548927 3.759588
7.683118 4.578905 3.773825
7.676498 4.595654 3.788404
7.681117 4.615111 3.794606
7.682770 4.629473 3.799384
7.679433 4.643928 3.805303
7.673707 4.668644 3.812935
7.668520 4.696853 3.816414
7.661311 4.723104 3.814055
7.677049 4.738765 3.803451
7.677568 4.760307 3.789728
7.689448 4.795343 3.693543
7.682799 4.776648 3.775742
7.677437 4.804292 3.671889
7.679718 4.801898 3.707737
7.676211 4.790451 3.759280
7.681074 4.828692 3.618068
7.686291 4.824262 3.625139
7.673896 4.803431 3.722549
7.681721 4.799209 3.740799
7.678446 4.828953 3.630226
7.665589 4.819470 3.653847
7.667257 4.830614 3.635864
7.709250 4.529098 3.709217
7.702233 4.525805 3.718508
7.691050 4.522373 3.734305
7.714338 4.534844 3.704771
7.690646 4.606175 3.782130
7.697406 4.632178 3.786797
7.696669 4.662671 3.796994
7.693037 4.690699 3.803895
7.686565 4.717570 3.805861
7.714091 4.777552 3.689062
7.694282 4.767501 3.779103
7.692163 4.820823 3.621519
7.703614 4.809346 3.628329
7.693805 4.797537 3.714304
7.683922 4.820323 3.638888
7.726074 4.465307 3.660057
7.726038 4.473823 3.660614
7.726958 4.494769 3.663624
7.728556 4.524536 3.670959
7.708821 4.535337 3.723610
7.701400 4.534626 3.737183
7.728332 4.546049 3.682895
7.715240 4.538620 3.709891
7.701979 4.548815 3.745399
7.723002 4.548107 3.698465
7.703990 4.574108 3.753713
7.707632 4.608430 3.764232
7.713938 4.633922 3.768001
7.714798 4.654191 3.775918
7.713226 4.681672 3.786315
7.708504 4.709467 3.791995
7.698275 4.735696 3.793188
7.726011 4.762155 3.680679
7.706029 4.752920 3.779250
7.714130 4.779975 3.666522
7.724949 4.765030 3.695360
7.703260 4.772620 3.765826
7.716974 4.794315 3.633803
7.713753 4.781354 3.711098
7.713782 4.797252 3.635769
7.694605 4.804161 3.652446
7.705690 4.792663 3.722920
7.700306 4.788483 3.747554
7.701177 4.807934 3.636972
7.696139 4.797069 3.730877
7.725612 4.468624 3.660040
7.726631 4.483045 3.661887
7.727917 4.509533 3.666437
7.730269 4.546964 3.677998
7.720540 4.554159 3.714778
7.711754 4.546697 3.731603
7.735063 4.585350 3.685854
7.730034 4.570237 3.696008
7.726053 4.578209 3.718791
7.716429 4.565972 3.734300
7.740308 4.620377 3.685521
7.737165 4.607949 3.694158
7.732008 4.604199 3.714974
7.721153 4.595368 3.738294
7.744667 4.651485 3.681549
7.742090 4.640303 3.691947
7.737803 4.631259 3.709153
7.729515 4.640302 3.742715
7.746080 4.674749 3.686964
7.742215 4.663227 3.712143
7.728606 4.672620 3.765031
7.745231 4.709196 3.686841
7.745109 4.697618 3.706421
7.726357 4.699446 3.774136
7.736859 4.741521 3.687491
7.741415 4.728942 3.706848
7.719512 4.727398 3.777942
7.726396 4.778858 3.642223
7.725077 4.776210 3.650246
7.731736 4.756200 3.709872
7.714575 4.790355 3.646410
7.712788 4.785205 3.732964
7.748699 4.676482 3.673749
7.738071 4.670938 3.747923
7.749475 4.694964 3.671369
7.741314 4.669746 3.733668
7.738131 4.690893 3.755761
7.746131 4.720555 3.670026
7.744894 4.690159 3.726551
7.735001 4.716888 3.760025
7.736645 4.747290 3.667759
7.743896 4.717598 3.725479
7.725636 4.747552 3.760927
7.738799 4.758256 3.645821
7.735963 4.758051 3.652163
7.738328 4.744489 3.726928
7.719987 4.770989 3.747926
7.727255 4.767441 3.729681
7.751667 4.696476 3.663344
7.743072 4.684918 3.741271
7.751648 4.717522 3.655309
7.751424 4.708796 3.660963
7.743139 4.705450 3.742367
7.745937 4.740140 3.650063
7.747277 4.730068 3.657118
7.739371 4.732051 3.743659
7.733059 4.754042 3.742836
3 2 6 7
3 20 11 19
3 12 20 21
3 21 39 40
3 40 75 76
3 0 4 1
3 1 4 5
3 4 3 9
3 18 10 17
3 11 18 19
3 18 17 27
3 27 19 18
3 37 38 73
3 73 74 114
3 151 115 123
3 275 276 309
3 309 310 338
3 9 16 10
3 10 16 17
3 14 13 24
3 15 14 25
3 26 34 35
3 17 36 27
3 27 36 38
3 35 34 54
3 54 70 72
3 38 72 74
3 113 72 70
3 74 113 115
3 123 113 111
3 115 113 123
3 214 211 220
3 220 215 214
3 274 249 244
3 249 274 276
3 274 272 280
3 280 276 274
3 310 311 339
3 345 346 367
3 340 345 339
3 367 384 366
3 22 29 23
3 24 32 25
3 25 33 26
3 26 33 34
3 29 28 42
3 30 29 45
3 31 30 48
3 32 31 51
3 33 32 52
3 34 33 53
3 55 70 54
3 70 71 111
3 111 112 149
3 149 150 184
3 184 185 211
3 243 220 211
3 220 243 245
3 243 240 248
3 248 245 243
3 272 273 281
3 281 311 280
3 311 312 340
3 346 370 367
3 346 372 370
3 385 412 410
3 385 416 412
3 372 387 370
3 445 446 462
3 412 445 410
3 416 448 412
3 471 472 468
3 462 471 461
3 41 56 57
3 45 42 46
3 48 45 49
3 66 49 64
3 51 67 52
3 52 68 53
3 53 69 55
3 55 69 71
3 77 91 92
3 77 93 78
3 78 93 94
3 58 57 79
3 59 58 82
3 66 64 88
3 88 104 105
3 68 67 109
3 69 68 110
3 71 110 112
3 92 124 125
3 93 92 127
3 130 94 93
3 105 104 121
3 121 142 143
3 110 109 147
3 112 147 150
3 125 162 163
3 164 153 127
3 130 127 153
3 143 142 161
3 161 181 183
3 150 183 185
3 208 183 181
3 185 208 212
3 208 207 219
3 219 212 208
3 271 248 240
3 248 271 273
3 303 271 268
3 273 308 281
3 281 308 312
3 332 303 301
3 308 303 337
3 312 337 341
3 363 332 330
3 337 332 371
3 341 371 372
3 407 382 405
3 361 382 407
3 387 413 416
3 372 371 387
3 388 418 389
3 419 389 418
3 420 390 419
3 421 391 420
3 394 425 397
3 428 429 424
3 432 433 428
3 450 452 436
3 452 455 439
3 455 458 442
3 405 442 458
3 448 407 446
3 416 413 448
3 450 466 452
3 469 452 466
3 472 455 469
3 462 458 472
3 43 60 44
3 46 43 47
3 49 46 50
3 50 64 49
3 79 95 80
3 82 79 83
3 60 59 82
3 64 65 89
3 104 90 106
3 90 108 106
3 94 130 95
3 104 106 121
3 142 122 144
3 122 146 144
3 153 165 154
3 131 130 153
3 142 144 161
3 144 181 161
3 190 209 207
3 190 213 209
3 207 209 219
3 209 241 219
3 222 251 223
3 241 242 268
3 251 285 252
3 278 304 301
3 278 306 304
3 285 314 286
3 314 313 315
3 304 333 330
3 335 304 306
3 333 364 361
3 368 333 335
3 395 392 374
3 376 397 395
3 382 408 405
3 382 411 408
3 368 386 364
3 395 422 392
3 397 422 395
3 429 430 425
3 433 434 429
3 436 437 433
3 439 440 436
3 442 443 439
3 408 442 405
3 411 447 408
3 44 60 61
3 44 62 47
3 47 63 50
3 50 63 65
3 80 96 81
3 83 80 84
3 61 60 83
3 62 61 85
3 63 62 86
3 103 87 102
3 89 107 90
3 90 107 108
3 128 126 116
3 128 116 96
3 140 103 102
3 107 103 141
3 108 145 122
3 122 145 146
3 154 126 128
3 131 154 128
3 140 138 159
3 159 177 179
3 145 141 180
3 146 180 182
3 165 191 166
3 179 177 188
3 188 204 206
3 182 210 190
3 190 210 213
3 191 223 192
3 206 204 217
3 217 237 239
3 213 239 242
3 223 252 224
3 239 237 247
3 247 242 239
3 282 286 287
3 282 287 288
3 269 270 279
3 279 306 278
3 286 314 287
3 287 314 316
3 306 307 335
3 316 347 317
3 335 336 368
3 347 375 348
3 375 374 392
3 386 414 411
3 386 417 414
3 392 423 393
3 426 427 422
3 430 431 426
3 434 435 430
3 453 451 435
3 437 440 456
3 440 443 459
3 443 447 463
3 447 465 463
3 417 449 414
3 453 467 451
3 456 467 453
3 459 470 456
3 463 473 459
3 465 474 463
3 81 96 97
3 81 98 84
3 84 99 85
3 85 100 86
3 86 101 87
3 87 101 102
3 116 126 129
3 116 97 96
3 133 117 98
3 99 98 117
3 100 99 118
3 101 100 119
3 120 102 101
3 129 166 167
3 168 155 132
3 133 132 155
3 138 139 160
3 160 177 159
3 167 192 193
3 194 168 167
3 177 178 189
3 189 204 188
3 193 224 225
3 221 194 193
3 221 226 227
3 204 205 218
3 218 237 217
3 225 253 254
3 226 225 255
3 256 227 226
3 267 247 237
3 247 267 270
3 253 282 254
3 288 254 282
3 283 256 255
3 283 290 291
3 267 265 277
3 305 277 302
3 279 305 307
3 289 317 318
3 290 289 319
3 320 291 290
3 334 305 302
3 307 334 336
3 318 348 349
3 319 318 350
3 342 320 319
3 342 351 352
3 365 334 331
3 336 365 369
3 348 375 349
3 393 349 375
3 351 350 398
3 377 352 351
3 399 400 378
3 378 400 401
3 409 383 406
3 362 383 409
3 369 415 417
3 393 423 396
3 427 396 423
3 431 398 427
3 435 399 431
3 451 454 438
3 454 457 441
3 457 460 444
3 406 444 460
3 449 464 465
3 417 415 449
3 451 467 454
3 470 454 467
3 473 457 470
3 474 460 473
3 465 464 474
3 117 133 134
3 117 135 118
3 118 136 119
3 119 137 120
3 120 137 139
3 155 168 169
3 155 134 133
3 171 156 135
3 136 135 156
3 137 136 157
3 176 158 175
3 160 176 178
3 169 194 195
3 196 186 170
3 171 170 186
3 176 175 187
3 203 187 202
3 189 203 205
3 194 221 195
3 195 221 227
3 203 202 216
3 236 216 235
3 218 236 238
3 250 256 257
3 250 257 258
3 236 235 246
3 246 238 236
3 256 283 257
3 291 292 284
3 284 292 293
3 300 277 265
3 277 300 302
3 292 320 321
3 322 293 292
3 329 300 299
3 302 329 331
3 320 342 321
3 352 353 343
3 353 354 344
3 344 354 355
3 360 329 328
3 331 360 362
3 352 377 353
3 378 353 377
3 401 402 379
3 402 403 380
3 403 404 381
3 359 381 404
3 362 360 383
3 401 438 402
3 441 402 438
3 444 403 441
3 406 404 444
3 156 171 172
3 156 173 157
3 157 174 158
3 158 174 175
3 186 196 197
3 186 172 171
3 173 172 199
3 174 173 200
3 175 201 187
3 187 201 202
3 197 228 229
3 198 197 230
3 199 198 231
3 200 199 232
3 201 200 233
3 202 234 216
3 216 234 235
3 228 250 229
3 258 229 250
3 231 230 260
3 232 231 261
3 233 232 262
3 234 233 263
3 235 264 246
3 246 264 266
3 258 284 259
3 293 259 284
3 261 260 295
3 262 261 296
3 263 262 297
3 264 263 298
3 266 298 299
3 294 322 323
3 295 294 324
3 296 295 325
3 297 296 326
3 298 297 327
3 299 327 328
3 322 343 323
3 344 323 343
3 355 324 344
3 326 325 357
3 327 326 358
3 328 358 359
3 355 379 356
3 380 356 379
3 381 357 380
3 359 358 381
3 12 11 20
3 20 39 21
3 39 75 40
3 3 4 0
3 10 4 9
3 11 10 18
3 27 38 19
3 38 74 73
3 74 115 114
3 151 152 115
3 276 275 249
3 276 310 309
3 310 339 338
3 13 14 8
3 15 16 9
3 25 14 24
3 26 15 25
3 26 35 15
3 17 16 36
3 54 72 35
3 36 72 38
3 111 113 70
3 72 113 74
3 123 111 148
3 220 245 215
3 274 244 272
3 280 311 276
3 311 340 339
3 366 345 367
3 346 345 340
3 385 384 367
3 28 29 22
3 29 30 23
3 31 32 24
3 32 33 25
3 45 29 42
3 48 30 45
3 51 31 48
3 52 32 51
3 53 33 52
3 34 53 54
3 71 70 55
3 71 112 111
3 112 150 149
3 150 185 184
3 185 212 211
3 243 211 240
3 248 273 245
3 280 272 281
3 312 311 281
3 312 341 340
3 346 340 372
3 367 416 385
3 461 445 462
3 412 448 445
3 468 472 469
3 472 471 462
3 57 58 41
3 42 43 46
3 45 46 49
3 66 51 49
3 66 67 51
3 67 68 52
3 68 69 53
3 92 93 77
3 56 78 94
3 82 58 79
3 88 105 66
3 109 67 105
3 110 68 109
3 69 110 71
3 91 124 92
3 127 92 125
3 127 130 93
3 121 143 105
3 147 109 143
3 110 147 112
3 124 162 125
3 164 127 163
3 161 183 143
3 147 183 150
3 207 208 181
3 183 208 185
3 219 241 212
3 271 240 268
3 301 303 268
3 273 271 308
3 330 332 301
3 337 303 332
3 308 337 312
3 361 363 330
3 371 332 363
3 337 371 341
3 361 407 363
3 387 371 413
3 390 389 419
3 391 390 420
3 394 391 421
3 394 421 425
3 424 429 425
3 428 433 429
3 450 436 432
3 436 452 439
3 439 455 442
3 407 405 458
3 413 407 448
3 455 452 469
3 458 455 472
3 59 60 43
3 43 44 47
3 46 47 50
3 65 64 50
3 94 95 79
3 79 80 83
3 83 60 82
3 88 64 89
3 104 88 90
3 95 130 131
3 121 122 142
3 164 165 153
3 154 131 153
3 144 146 181
3 190 207 182
3 191 222 223
3 209 213 241
3 223 251 252
3 242 269 268
3 252 285 286
3 278 301 269
3 313 314 285
3 316 314 315
3 301 304 330
3 333 304 335
3 330 333 361
3 364 333 368
3 395 374 376
3 361 411 382
3 397 425 422
3 425 430 426
3 429 434 430
3 433 437 434
3 436 440 437
3 439 443 440
3 408 447 442
3 61 62 44
3 62 63 47
3 95 96 80
3 80 81 84
3 61 83 85
3 86 62 85
3 87 63 86
3 89 87 103
3 103 107 89
3 128 96 131
3 138 140 102
3 141 103 140
3 108 107 145
3 154 165 126
3 159 179 140
3 180 141 179
3 145 180 146
3 166 191 192
3 188 206 179
3 182 180 210
3 192 223 224
3 217 239 206
3 210 239 213
3 224 252 253
3 247 270 242
3 282 253 286
3 278 269 279
3 307 306 279
3 287 316 288
3 307 336 335
3 317 347 348
3 336 369 368
3 374 375 347
3 393 375 392
3 386 368 417
3 422 423 392
3 422 427 423
3 426 431 427
3 430 435 431
3 453 435 437
3 453 437 456
3 456 440 459
3 459 443 463
3 411 465 447
3 470 467 456
3 473 470 459
3 474 473 463
3 97 98 81
3 98 99 84
3 99 100 85
3 100 101 86
3 116 129 97
3 133 98 132
3 118 99 117
3 119 100 118
3 120 101 119
3 120 139 102
3 126 166 129
3 168 132 167
3 159 138 160
3 178 177 160
3 166 192 167
3 193 194 167
3 188 177 189
3 205 204 189
3 192 224 193
3 221 193 226
3 217 204 218
3 238 237 218
3 224 253 225
3 255 225 254
3 255 256 226
3 267 237 265
3 288 289 254
3 283 255 290
3 279 277 305
3 288 317 289
3 319 289 318
3 319 320 290
3 331 334 302
3 305 334 307
3 317 348 318
3 350 318 349
3 342 319 351
3 362 365 331
3 334 365 336
3 393 396 349
3 398 350 396
3 377 351 399
3 377 399 378
3 362 409 365
3 365 415 369
3 398 396 427
3 399 398 431
3 400 399 435
3 435 451 438
3 438 454 441
3 441 457 444
3 406 460 409
3 449 415 464
3 457 454 470
3 460 457 473
3 464 460 474
3 134 135 117
3 135 136 118
3 136 137 119
3 155 169 134
3 171 135 170
3 157 136 156
3 158 137 157
3 160 158 176
3 168 194 169
3 196 170 195
3 189 187 203
3 195 227 196
3 218 216 236
3 250 228 256
3 246 266 238
3 283 291 284
3 300 265 299
3 291 320 292
3 321 322 292
3 328 329 299
3 300 329 302
3 342 352 343
3 343 353 344
3 359 360 328
3 329 360 331
3 354 353 378
3 378 401 379
3 379 402 380
3 380 403 381
3 360 359 404
3 403 402 441
3 404 403 444
3 172 173 156
3 173 174 157
3 186 197 172
3 199 172 198
3 200 173 199
3 175 174 201
3 196 228 197
3 230 197 229
3 231 198 230
3 232 199 231
3 233 200 232
3 202 201 234
3 258 259 229
3 260 230 259
3 261 231 260
3 262 232 261
3 263 233 262
3 235 234 264
3 293 294 259
3 295 260 294
3 296 261 295
3 297 262 296
3 298 263 297
3 264 298 266
3 293 322 294
3 324 294 323
3 325 295 324
3 326 296 325
3 327 297 326
3 298 327 299
3 324 323 344
3 355 356 324
3 357 325 356
3 358 326 357
3 327 358 328
3 357 356 380
3 358 357 381
3 12 6 11
3 11 4 10
3 38 37 19
3 152 114 115
3 15 35 16
3 16 35 36
3 35 72 36
3 148 111 149
3 245 244 215
3 272 244 245
3 311 310 276
3 54 53 55
3 240 211 212
3 273 272 245
3 340 341 372
3 367 387 416
3 448 446 445
3 468 469 466
3 51 48 49
3 56 94 79
3 66 105 67
3 105 143 109
3 163 127 125
3 143 183 147
3 241 240 212
3 268 240 241
3 271 303 308
3 363 407 413
3 371 363 413
3 421 424 425
3 432 436 433
3 407 458 462
3 88 89 90
3 121 108 122
3 146 182 181
3 182 207 181
3 213 242 241
3 269 301 268
3 376 374 373
3 361 386 411
3 425 426 422
3 447 443 442
3 85 83 84
3 89 63 87
3 131 96 95
3 107 141 145
3 165 166 126
3 140 179 141
3 179 206 180
3 180 206 210
3 206 239 210
3 270 269 242
3 253 252 286
3 288 316 317
3 368 369 417
3 437 435 434
3 411 449 465
3 129 132 97
3 132 98 97
3 139 138 102
3 167 132 129
3 226 193 225
3 265 237 238
3 289 255 254
3 290 255 289
3 279 267 277
3 351 319 350
3 396 350 349
3 399 351 398
3 365 409 415
3 435 438 401
3 409 460 464
3 415 409 464
3 169 170 134
3 170 135 134
3 160 137 158
3 195 170 169
3 189 176 187
3 196 227 228
3 218 203 216
3 228 227 256
3 266 265 238
3 283 284 258
3 299 265 266
3 342 343 322
3 378 379 355
3 360 404 406
3 197 198 172
3 174 200 201
3 201 233 234
3 259 230 229
3 234 263 264
3 294 260 259
3 356 325 324
3 12 7 6
3 11 5 4
3 367 370 387
3 56 79 57
3 407 462 446
3 121 106 108
3 361 364 386
3 89 65 63
3 411 414 449
3 279 270 267
3 435 401 400
3 160 139 137
3 189 178 176
3 218 205 203
3 283 258 257
3 342 322 321
3 378 355 354
3 360 406 383
